<?xml version="1.0" encoding="UTF-8"?>
<svg width="16px" height="16px" viewBox="0 0 16 16" version="1.1" xmlns="http://www.w3.org/2000/svg" xmlns:xlink="http://www.w3.org/1999/xlink">
    <!-- Generator: Sketch 59.1 (86144) - https://sketch.com -->
    <title>16</title>
    <desc>Created with Sketch.</desc>
    <g id="16" stroke="none" stroke-width="1" fill="none" fill-rule="evenodd">
        <path d="M7.99082727,-2.98417311 C8.40504083,-2.98417311 8.74082727,-2.64838668 8.74082727,-2.23417311 L8.74082727,18.2158276 C8.74082727,18.6300412 8.40504083,18.9658276 7.99082727,18.9658276 C7.5766137,18.9658276 7.24082727,18.6300412 7.24082727,18.2158276 L7.24082727,-2.23417311 C7.24082727,-2.64838668 7.5766137,-2.98417311 7.99082727,-2.98417311 Z" id="Rectangle-Copy-5" fill="#A6A8AD" transform="translate(7.990827, 7.990827) rotate(-45.000000) translate(-7.990827, -7.990827) "></path>
        <path d="M7.99082727,-2.98417311 C8.40504083,-2.98417311 8.74082727,-2.64838668 8.74082727,-2.23417311 L8.74082727,18.2158276 C8.74082727,18.6300412 8.40504083,18.9658276 7.99082727,18.9658276 C7.5766137,18.9658276 7.24082727,18.6300412 7.24082727,18.2158276 L7.24082727,-2.23417311 C7.24082727,-2.64838668 7.5766137,-2.98417311 7.99082727,-2.98417311 Z" id="Rectangle-Copy-5" fill="#A6A8AD" transform="translate(7.990827, 7.990827) scale(-1, 1) rotate(-45.000000) translate(-7.990827, -7.990827) "></path>
    </g>
</svg>