<?xml version="1.0" encoding="UTF-8"?>
<svg width="16px" height="16px" viewBox="0 0 16 16" version="1.1" xmlns="http://www.w3.org/2000/svg" xmlns:xlink="http://www.w3.org/1999/xlink">
    <!-- Generator: Sketch 59.1 (86144) - https://sketch.com -->
    <title>16</title>
    <desc>Created with Sketch.</desc>
    <g id="16" stroke="none" stroke-width="1" fill="none" fill-rule="evenodd">
        <path d="M7.99926333,0 C3.58218484,0 0,3.51932238 0,7.86092988 C0,11.3339263 2.29202861,14.2799654 5.47100893,15.3194033 C5.87126677,15.3917876 6.0171276,15.149059 6.0171276,14.9405924 C6.0171276,14.753841 6.010252,14.2596979 6.00632309,13.6038965 C3.78108598,14.0787372 3.31158108,12.5499818 3.31158108,12.5499818 C2.94766567,11.6418007 2.42315602,11.4000373 2.42315602,11.4000373 C1.69679855,10.91265 2.47816078,10.9223012 2.47816078,10.9223012 C3.28113202,10.9777958 3.70348998,11.7325223 3.70348998,11.7325223 C4.41707849,12.9336183 5.57610731,12.5866565 6.03186101,12.3854283 C6.10454587,11.8777734 6.31130483,11.5312941 6.5396728,11.3348915 C4.76331379,11.1365586 2.8956076,10.4619374 2.8956076,7.44978732 C2.8956076,6.59179265 3.20746493,5.88966539 3.71920562,5.34051019 C3.63669849,5.14169478 3.36216581,4.34209006 3.79778385,3.26018676 C3.79778385,3.26018676 4.46913656,3.04882474 5.99748304,4.06606478 C6.63544001,3.89137744 7.32005279,3.80451634 8.00024556,3.80113841 C8.67994721,3.80451634 9.36406888,3.89137744 10.0030081,4.06606478 C11.5303723,3.04882474 12.2007428,3.26018676 12.2007428,3.26018676 C12.6373431,4.34209006 12.3628104,5.14169478 12.2807944,5.34051019 C12.7935173,5.88966539 13.1029191,6.59179265 13.1029191,7.44978732 C13.1029191,10.4696584 11.2322662,11.1341458 9.45050493,11.3286182 C9.73731545,11.5713467 9.99318579,12.051013 9.99318579,12.7840242 C9.99318579,13.8350436 9.98336352,14.6829045 9.98336352,14.9405924 C9.98336352,15.1509893 10.127751,15.3956481 10.5334111,15.3189208 C13.7099358,14.2770701 16,11.3329612 16,7.86092988 C16,3.51932238 12.4178152,0 7.99926333,0" id="Fill-50-Copy" fill="#000000"></path>
    </g>
</svg>