<?xml version="1.0" encoding="UTF-8"?>
<svg width="24px" height="23px" viewBox="0 0 24 23" version="1.1" xmlns="http://www.w3.org/2000/svg" xmlns:xlink="http://www.w3.org/1999/xlink">
    <!-- Generator: Sketch 59.1 (86144) - https://sketch.com -->
    <title>24</title>
    <desc>Created with Sketch.</desc>
    <g id="24" stroke="none" stroke-width="1" fill="none" fill-rule="evenodd">
        <path d="M11.998895,0 C5.37327726,0 0,5.27898358 0,11.7913948 C0,17.0008895 3.43804291,21.4199482 8.2065134,22.979105 C8.80690015,23.0876814 9.0256914,22.7235886 9.0256914,22.4108886 C9.0256914,22.1307615 9.015378,21.3895468 9.00948464,20.4058448 C5.67162896,21.1181058 4.96737162,18.8249727 4.96737162,18.8249727 C4.42149851,17.4627011 3.63473403,17.1000559 3.63473403,17.1000559 C2.54519783,16.368975 3.71724117,16.3834518 3.71724117,16.3834518 C4.92169803,16.4666937 5.55523497,17.5987834 5.55523497,17.5987834 C6.62561773,19.4004275 8.36416096,18.8799847 9.04779152,18.5781424 C9.15681881,17.81666 9.46695724,17.2969411 9.80950919,17.0023372 C7.14497069,16.7048379 4.3434114,15.6929061 4.3434114,11.174681 C4.3434114,9.88768897 4.8111974,8.83449809 5.57880843,8.01076529 C5.45504773,7.71254216 5.04324872,6.51313509 5.69667577,4.89028014 C5.69667577,4.89028014 6.70370484,4.57323711 8.99622456,6.09909716 C9.95316001,5.83706617 10.9800792,5.70677451 12.0003683,5.70170761 C13.0199208,5.70677451 14.0461033,5.83706617 15.0045121,6.09909716 C17.2955585,4.57323711 18.3011142,4.89028014 18.3011142,4.89028014 C18.9560146,6.51313509 18.5442156,7.71254216 18.4211916,8.01076529 C19.1902759,8.83449809 19.6543786,9.88768897 19.6543786,11.174681 C19.6543786,15.7044875 16.8483993,16.7012187 14.1757574,16.9929272 C14.6059732,17.35702 14.9897787,18.0765195 14.9897787,19.1760363 C14.9897787,20.7525654 14.9750453,22.0243567 14.9750453,22.4108886 C14.9750453,22.7264839 15.1916265,23.0934721 15.8001166,22.9783811 C20.5649038,21.4156051 24,16.9994418 24,11.7913948 C24,5.27898358 18.6267227,0 11.998895,0" id="Fill-50" fill="#000000"></path>
    </g>
</svg>