<?xml version="1.0" encoding="UTF-8"?>
<svg width="32px" height="31px" viewBox="0 0 32 31" version="1.1" xmlns="http://www.w3.org/2000/svg" xmlns:xlink="http://www.w3.org/1999/xlink">
    <!-- Generator: Sketch 59.1 (86144) - https://sketch.com -->
    <title>32</title>
    <desc>Created with Sketch.</desc>
    <g id="32" stroke="none" stroke-width="1" fill="none" fill-rule="evenodd">
        <path d="M15.9985267,0 C7.16436969,0 0,7.03864477 0,15.7218598 C0,22.6678527 4.58405721,28.5599309 10.9420179,30.6388066 C11.7425335,30.7835751 12.0342552,30.2981181 12.0342552,29.8811848 C12.0342552,29.507682 12.020504,28.5193957 12.0126462,27.207793 C7.56217195,28.1574744 6.62316216,25.0999636 6.62316216,25.0999636 C5.89533135,23.2836014 4.84631204,22.8000746 4.84631204,22.8000746 C3.3935971,21.8253 4.95632156,21.8446024 4.95632156,21.8446024 C6.56226404,21.9555916 7.40697996,23.4650446 7.40697996,23.4650446 C8.83415697,25.8672367 11.1522146,25.173313 12.063722,24.7708565 C12.2090917,23.7555467 12.6226097,23.0625881 13.0793456,22.6697829 C9.52662758,22.2731172 5.7912152,20.9238748 5.7912152,14.8995746 C5.7912152,13.1835853 6.41492986,11.7793308 7.43841125,10.6810204 C7.27339697,10.2833896 6.72433162,8.68418012 7.5955677,6.52037352 C7.5955677,6.52037352 8.93827312,6.09764948 11.9949661,8.13212955 C13.27088,7.78275489 14.6401056,7.60903268 16.0004911,7.60227682 C17.3598944,7.60903268 18.7281378,7.78275489 20.0060161,8.13212955 C23.0607447,6.09764948 24.4014856,6.52037352 24.4014856,6.52037352 C25.2746861,8.68418012 24.7256208,10.2833896 24.5615888,10.6810204 C25.5870346,11.7793308 26.2058381,13.1835853 26.2058381,14.8995746 C26.2058381,20.9393167 22.4645324,22.2682916 18.9010099,22.6572363 C19.4746309,23.1426934 19.9863716,24.102026 19.9863716,25.5680484 C19.9863716,27.6700871 19.966727,29.3658089 19.966727,29.8811848 C19.966727,30.3019786 20.255502,30.7912961 21.0668222,30.6378415 C27.4198717,28.5541401 32,22.6659224 32,15.7218598 C32,7.03864477 24.8356303,0 15.9985267,0" id="Fill-50-Copy-2" fill="#000000"></path>
    </g>
</svg>