<?xml version="1.0" encoding="UTF-8"?>
<svg width="58px" height="52px" viewBox="0 0 58 52" version="1.1" xmlns="http://www.w3.org/2000/svg" xmlns:xlink="http://www.w3.org/1999/xlink">
    <!-- Generator: Sketch 59.1 (86144) - https://sketch.com -->
    <title>Misc/AbstractMark</title>
    <desc>Created with Sketch.</desc>
    <g id="Pages" stroke="none" stroke-width="1" fill="none" fill-rule="evenodd">
        <g id="INM_DesignSystem_Logo" transform="translate(-819.000000, -1986.000000)" fill="#000000">
            <g id="Misc/AbstractMark" transform="translate(818.000000, 1984.000000)">
                <g id="Inmarsat_Logo_Vertical_RGB_Black-(1)">
                    <g id="g10" transform="translate(30.000000, 27.851852) scale(-1, 1) rotate(-180.000000) translate(-30.000000, -27.851852) translate(0.000000, 0.851852)">
                        <g id="g12" transform="translate(-0.000000, 0.000000)">
                            <g id="g14-Clipped" transform="translate(-0.000000, 0.000000)">
                                <g id="g14" transform="translate(-0.000000, 0.000000)">
                                    <g id="g20" transform="translate(0.073876, 0.146254)">
                                        <path d="M53.4826978,13.7685614 L58.926124,36.9896374 L36.0552213,47.6799013 C36.0552213,47.6799013 35.9693439,47.7377176 35.940718,47.6799013 C35.8872329,47.5933684 35.9979697,47.5669491 35.9979697,47.5669491 C46.969193,41.0585999 54.9509012,26.1822093 53.3708311,13.7685614 C53.3708311,13.7685614 53.3994569,13.6268925 53.4826978,13.7685614 M10.0163182,52.5868645 C22.7506941,47.6505215 45.8230508,27.4612591 28.720326,5.44172401 L37.6282494,0.705597459 C53.3604071,17.0899723 43.4243677,43.4075637 10.0716138,52.7055975 L9.96407347,52.7055975 C9.95110762,52.6986132 9.93776042,52.6893008 9.93051479,52.6741681 C9.90267634,52.6163537 10.0163182,52.5868645 10.0163182,52.5868645 M1.00718735,45.5588071 C7.54154802,44.1098822 28.7450222,30.9456187 9.68841557,15.7797396 L19.2329831,10.7055975 C39.0622324,34.0169833 9.31797568,45.4139534 1.03741953,45.7055975 C1.03741953,45.7055975 0.808573396,45.6761619 1.00718735,45.5588071" id="path22"></path>
                                    </g>
                                </g>
                            </g>
                        </g>
                    </g>
                </g>
            </g>
        </g>
    </g>
</svg>