<?xml version="1.0" encoding="UTF-8"?>
<svg width="145px" height="54px" viewBox="0 0 145 54" version="1.1" xmlns="http://www.w3.org/2000/svg" xmlns:xlink="http://www.w3.org/1999/xlink">
    <!-- Generator: Sketch 59.1 (86144) - https://sketch.com -->
    <title>Misc/Logo</title>
    <desc>Created with Sketch.</desc>
    <g id="Pages" stroke="none" stroke-width="1" fill="none" fill-rule="evenodd">
        <g id="INM_DesignSystem_Logo" transform="translate(-478.000000, -1091.000000)" fill="#000000">
            <g id="Group-2" transform="translate(458.000000, 1068.000000)">
                <g id="Misc/Logo" transform="translate(20.000000, 19.000000)">
                    <g id="Inmarsat_Logo_Vertical_RGB_Black-(1)" transform="translate(0.000000, 2.148148)">
                        <g id="g10" transform="translate(74.000000, 27.925926) scale(-1, 1) rotate(-180.000000) translate(-74.000000, -27.925926) ">
                            <g id="g12">
                                <g id="g14-Clipped">
                                    <g id="g14">
                                        <g id="g20" transform="translate(0.073876, 0.146254)">
                                            <path d="M140.902557,32.9278183 L143.730784,44.8145647 L131.847806,50.2868546 C131.847806,50.2868546 131.803187,50.3164504 131.788314,50.2868546 C131.760525,50.2425588 131.81806,50.2290349 131.81806,50.2290349 C137.518351,46.8974453 141.665388,39.2822993 140.844435,32.9278183 C140.844435,32.9278183 140.859308,32.8552987 140.902557,32.9278183 M118.747587,52.9720397 C125.28253,50.4785415 137.12265,40.2803258 128.345986,29.1575831 L132.917296,26.7652203 C140.990621,35.0414707 135.89171,48.3352933 118.775963,53.0320154 L118.720776,53.0320154 C118.714122,53.0284874 118.707273,53.0237835 118.703555,53.0161395 C118.689269,52.9869357 118.747587,52.9720397 118.747587,52.9720397 M114.072753,49.3919235 C117.414296,48.6586915 128.257335,41.9968843 118.512162,34.3221546 L123.393066,31.7543728 C133.533353,43.5511557 118.322726,49.3186199 114.088213,49.4662071 C114.088213,49.4662071 113.971186,49.4513112 114.072753,49.3919235 M144.744304,1.65501487 L144.744304,5.86173966 C143.126665,4.87272912 142.224888,4.51640308 141.300411,4.51640308 C139.810366,4.51640308 139.262803,5.69318059 139.262803,7.39621519 L139.262803,15.1556164 L144.471893,15.1556164 L144.471893,18.7512165 L139.262803,18.7512165 L139.262803,24.4075493 L138.27766,24.4075493 L130.948574,15.8706204 L130.948574,15.1556164 L133.572493,15.1556164 L133.572493,6.32370911 C133.572493,1.65501487 136.805424,0.120735334 139.618582,0.120735334 C141.238179,0.120735334 142.581841,0.520769127 144.744304,1.65501487 M122.381307,9.58317113 C119.335659,8.46872128 117.760486,7.52283049 117.760486,5.90309543 C117.760486,4.74709381 118.537799,3.9689781 119.735079,3.9689781 C120.63666,3.9689781 121.14156,4.19966883 122.381307,5.18769938 L122.381307,9.58317113 Z M128.616441,4.43173155 C129.016643,4.43173155 129.520566,4.64184239 130.275764,5.1467356 L130.275764,1.90844147 C128.258705,0.66698432 126.916021,0.163267099 125.529892,0.163267099 C123.829668,0.163267099 122.883664,0.982542579 122.611252,2.68518519 C120.679322,0.836131387 119.251313,0.120931333 117.319383,0.120931333 C114.674133,0.120931333 112.615977,2.09699243 112.615977,4.70534604 C112.615977,8.46872128 116.647747,10.2150716 122.381307,12.1070492 L122.381307,12.7371857 C122.381307,14.4837321 121.666031,15.2396999 120.091836,15.2396999 C118.117244,15.2396999 116.29099,14.4402203 113.834589,12.4655312 L113.834589,16.6275683 C116.37514,18.4360503 118.453648,19.1089146 121.435303,19.1089146 C124.942407,19.1089146 128.071422,17.9731008 128.071422,13.8516356 L128.071422,6.40838064 C128.071422,4.66281427 128.133654,4.43173155 128.616441,4.43173155 M97.6444934,5.90309543 L97.6444934,1.65501487 C100.059994,0.561340903 101.948284,0.120735334 103.838531,0.120735334 C107.827639,0.120735334 110.64158,2.58150176 110.64158,6.05068262 C110.64158,12.2744323 101.738887,11.7493512 101.738887,14.2093336 C101.738887,15.0088132 102.57941,15.5129224 103.963777,15.5129224 C104.824653,15.5129224 105.707447,15.3872871 106.653451,15.1132806 C107.639377,14.7979184 108.667966,14.3573128 109.928065,13.6830765 L109.928065,17.4480197 C107.870105,18.6050014 105.979858,19.1089146 104.007222,19.1089146 C100.099916,19.1089146 97.3294196,16.7330157 97.3294196,13.3057786 C97.3294196,7.56516626 105.582396,8.07005948 105.582396,5.58871317 C105.582396,4.55736686 104.720737,3.98994999 103.481773,3.98994999 C101.738887,3.98994999 99.9329858,4.59950662 97.6444934,5.90309543 M82.6301518,18.7512165 L82.6301518,0.478041363 L88.3202667,0.478041363 L88.3202667,3.29630981 C88.3202667,8.32231008 89.6654947,13.7252163 92.6686762,13.7252163 C93.3819954,13.7252163 94.1577422,13.411618 95.0397531,12.8216613 L96.2581688,17.8899973 C95.1027678,18.6050014 94.0121429,18.9623074 92.9827715,18.9623074 C90.7970205,18.9623074 89.181925,16.669708 87.9635093,11.8340227 L87.8809247,11.8340227 L87.8809247,18.7512165 L82.6301518,18.7512165 M72.1515026,9.58317113 C69.1058547,8.46872128 67.5322471,7.52283049 67.5322471,5.90309543 C67.5322471,4.74709381 68.3303035,3.9689781 69.5052743,3.9689781 C70.4086163,3.9689781 70.9330869,4.19966883 72.1515026,5.18769938 L72.1515026,9.58317113 Z M78.408946,4.43173155 C78.7868389,4.43173155 79.312288,4.64184239 80.0682693,5.1467356 L80.0682693,1.90844147 C78.0519929,0.66698432 76.7087218,0.163267099 75.3227886,0.163267099 C73.6211946,0.163267099 72.6765603,0.982542579 72.3816435,2.68518519 C70.450887,0.836131387 69.0446012,0.120931333 67.0913395,0.120931333 C64.4445241,0.120931333 62.3873468,2.09699243 62.3873468,4.70534604 C62.3873468,8.46872128 66.4193126,10.2150716 72.1515026,12.1070492 L72.1515026,12.7371857 C72.1515026,14.4837321 71.4374006,15.2396999 69.8620318,15.2396999 C67.8895917,15.2396999 66.0625552,14.4402203 63.6257237,12.4655312 L63.6257237,16.6275683 C66.144944,18.4360503 68.2461534,19.1089146 71.2068684,19.1089146 C74.7131894,19.1089146 77.842596,17.9731008 77.842596,13.8516356 L77.842596,6.40838064 C77.842596,4.66281427 77.9253763,4.43173155 78.408946,4.43173155 M31.624209,18.7512165 L31.624209,0.478041363 L37.314911,0.478041363 L37.314911,12.1913287 C38.3648308,14.0209786 39.3300133,14.8820019 40.5061582,14.8820019 C41.9339708,14.8820019 42.6478771,13.4943295 42.6478771,11.244262 L42.6478771,0.478041363 L48.3391662,0.478041363 L48.3391662,12.3371519 C49.3256798,14.0405785 50.4174789,14.8820019 51.6568343,14.8820019 C53.4206604,14.8820019 53.672328,13.3057786 53.672328,10.4036226 L53.672328,0.478041363 L59.36303,0.478041363 L59.36303,12.6317383 C59.36303,17.2579008 56.1510388,19.1089146 53.4629311,19.1089146 C50.9851988,19.1089146 49.1581623,17.8899973 47.8980629,15.3872871 C47.015465,17.763186 45.2099553,19.1089146 42.7952377,19.1089146 C40.6750456,19.1089146 38.8891057,18.120884 37.3783172,15.954704 L37.314911,15.954704 L37.314911,18.7512165 L31.624209,18.7512165 M10.6037002,18.7512165 L10.6037002,0.478041363 L16.2947936,0.478041363 L16.2947936,12.0221817 C17.030031,13.9361111 18.0588153,14.9666734 19.4032606,14.9666734 C20.9981992,14.9666734 21.6279554,13.6830765 21.6279554,11.6650716 L21.6279554,0.478041363 L27.3192445,0.478041363 L27.3192445,12.5911665 C27.3192445,16.8176872 24.98809,19.1089146 21.5027087,19.1089146 C19.3613812,19.1089146 17.7014708,18.1630238 16.3583955,16.1859827 L16.2947936,16.1859827 L16.2947936,18.7512165 L10.6037002,18.7512165 M6.40362981,24.6192282 C6.40362981,26.3640105 5.01789231,27.730711 3.29633704,27.730711 C1.55384209,27.730711 0.126029509,26.3640105 0.126029509,24.6192282 C0.126029509,22.8736618 1.55384209,21.4432617 3.29633704,21.4432617 C5.01789231,21.4432617 6.40362981,22.8736618 6.40362981,24.6192282 M0.398636817,18.7512165 L6.09012162,18.7512165 L6.09012162,0.478041363 L0.398636817,0.478041363 L0.398636817,18.7512165 Z" id="path22"></path>
                                        </g>
                                    </g>
                                </g>
                            </g>
                        </g>
                    </g>
                </g>
            </g>
        </g>
    </g>
</svg>