<?xml version="1.0" encoding="UTF-8"?>
<svg width="24px" height="24px" viewBox="0 0 24 24" version="1.1" xmlns="http://www.w3.org/2000/svg" xmlns:xlink="http://www.w3.org/1999/xlink">
    <!-- Generator: Sketch 59.1 (86144) - https://sketch.com -->
    <title>24</title>
    <desc>Created with Sketch.</desc>
    <g id="24" stroke="none" stroke-width="1" fill="none" fill-rule="evenodd">
        <path d="M12,7 C12.4142136,7 12.75,7.33578644 12.75,7.75 L12.75,16.25 C12.75,16.6642136 12.4142136,17 12,17 C11.5857864,17 11.25,16.6642136 11.25,16.25 L11.25,7.75 C11.25,7.33578644 11.5857864,7 12,7 Z" id="Rectangle-Copy-5" fill="#FF9900"></path>
        <path d="M13.1141593,1.70776321 C12.9941648,1.47167383 12.8022872,1.27979628 12.5661979,1.15980181 C11.9507712,0.847005845 11.198298,1.09233652 10.8855021,1.70776321 L0.859657463,21.4336328 C0.770471443,21.6091065 0.723986053,21.8031621 0.723986053,22 C0.723986053,22.6903559 1.28363012,23.25 1.97398605,23.25 L22.0256753,23.25 C22.2225132,23.25 22.4165688,23.2035146 22.5920425,23.1143286 C23.2074692,22.8015326 23.4527998,22.0490595 23.1400039,21.4336328 L13.1141593,1.70776321 Z" id="Rectangle" stroke="#FF9900" stroke-width="1.5"></path>
        <path d="M12,18.5 C12.4142136,18.5 12.75,18.8357864 12.75,19.25 C12.75,19.6642136 12.4142136,20 12,20 C11.5857864,20 11.25,19.6642136 11.25,19.25 C11.25,18.8357864 11.5857864,18.5 12,18.5 Z" id="Rectangle-Copy-6" fill="#FF9900"></path>
    </g>
</svg>