<?xml version="1.0" encoding="UTF-8"?>
<svg width="16px" height="16px" viewBox="0 0 16 16" version="1.1" xmlns="http://www.w3.org/2000/svg" xmlns:xlink="http://www.w3.org/1999/xlink">
    <!-- Generator: Sketch 59.1 (86144) - https://sketch.com -->
    <title>16</title>
    <desc>Created with Sketch.</desc>
    <g id="16" stroke="none" stroke-width="1" fill="none" fill-rule="evenodd">
        <path d="M1.5,4 L1.5,14 C1.5,14.2761424 1.72385763,14.5 2,14.5 L14,14.5 C14.2761424,14.5 14.5,14.2761424 14.5,14 L14.5,4 C14.5,3.72385763 14.2761424,3.5 14,3.5 L2,3.5 C1.72385763,3.5 1.5,3.72385763 1.5,4 Z M0,4 C0,2.8954305 0.8954305,2 2,2 L14,2 C15.1045695,2 16,2.8954305 16,4 L16,14 C16,15.1045695 15.1045695,16 14,16 L2,16 C0.8954305,16 0,15.1045695 0,14 L0,4 Z" id="Stroke-8324" fill="#000000" fill-rule="nonzero"></path>
        <path d="M8.997824,10.9296058 C9.96105331,10.0641453 10.5,9.22054243 10.5,8.58202529 C10.5,7.41965198 9.60430037,7.22347872 9.42716268,7.77097864 C8.97927357,9.15532117 7.02072643,9.15532117 6.57283732,7.77097864 C6.39569963,7.22347872 5.5,7.41965198 5.5,8.58202529 C5.5,9.22039586 6.03912114,10.0639804 7.00267522,10.9294337 C7.31882835,11.2133988 7.65772365,11.4798933 8.00054119,11.7224649 C8.3431583,11.479941 8.68185324,11.2135052 8.997824,10.9296058 Z M8,7.30923554 C9,5 12,6 12,8.58202529 C12,11.248692 8.00069085,13.5087336 8.00069085,13.5087336 C8.00069085,13.5087336 4,11.248692 4,8.58202529 C4,6 7,5 8,7.30923554 Z" id="Stroke-8329" fill="#000000" fill-rule="nonzero"></path>
        <rect id="Rectangle-Copy-4" fill="#000000" x="7.25" y="0" width="1.5" height="5" rx="0.75"></rect>
        <rect id="Rectangle-Copy-5" fill="#000000" x="4" y="0" width="1.5" height="5" rx="0.75"></rect>
        <rect id="Rectangle-Copy-6" fill="#000000" x="10.5" y="0" width="1.5" height="5" rx="0.75"></rect>
    </g>
</svg>