<?xml version="1.0" encoding="UTF-8"?>
<svg width="24px" height="24px" viewBox="0 0 24 24" version="1.1" xmlns="http://www.w3.org/2000/svg" xmlns:xlink="http://www.w3.org/1999/xlink">
    <!-- Generator: Sketch 59.1 (86144) - https://sketch.com -->
    <title>24</title>
    <desc>Created with Sketch.</desc>
    <g id="24" stroke="none" stroke-width="1" fill="none" fill-rule="evenodd">
        <path d="M1.5,5 L1.5,22 C1.5,22.2761424 1.72385763,22.5 2,22.5 L22,22.5 C22.2761424,22.5 22.5,22.2761424 22.5,22 L22.5,5 C22.5,4.72385763 22.2761424,4.5 22,4.5 L2,4.5 C1.72385763,4.5 1.5,4.72385763 1.5,5 Z M0,5 C0,3.8954305 0.8954305,3 2,3 L22,3 C23.1045695,3 24,3.8954305 24,5 L24,22 C24,23.1045695 23.1045695,24 22,24 L2,24 C0.8954305,24 0,23.1045695 0,22 L0,5 Z" id="Stroke-8324" fill="#000000" fill-rule="nonzero"></path>
        <rect id="Rectangle-Copy-4" fill="#000000" x="6" y="0" width="1.5" height="7" rx="0.75"></rect>
        <rect id="Rectangle-Copy-5" fill="#000000" x="11.25" y="0" width="1.5" height="7" rx="0.75"></rect>
        <rect id="Rectangle-Copy-7" fill="#000000" x="16.5" y="0" width="1.5" height="7" rx="0.75"></rect>
        <path d="M12.0981083,18.5553062 C12.7476765,18.1160433 13.3972571,17.6190215 13.9979967,17.0792576 C15.5861181,15.6523323 16.5,14.2218505 16.5,13 C16.5,10.4368073 13.9675992,9.88216906 13.4271627,11.5525585 C12.9792736,12.936901 11.0207264,12.936901 10.5728373,11.5525585 C10.0324008,9.88216906 7.5,10.4368073 7.5,13 C7.5,14.2217039 8.41418591,15.6521673 10.0028479,17.0790855 C10.6038096,17.6188624 11.2536311,18.1158968 11.9034412,18.5551715 C11.9366133,18.577596 11.9691071,18.5994243 12.0008924,18.6206488 C12.0326024,18.5994667 12.0650178,18.5776833 12.0981083,18.5553062 Z M12,11.0908154 C13,8 18,8.5377038 18,13 C18,17 12.0010363,20.3900625 12.0010363,20.3900625 C12.0010363,20.3900625 6,17 6,13 C6,8.45703125 11,8 12,11.0908154 Z" id="Stroke-8329" fill="#000000" fill-rule="nonzero"></path>
    </g>
</svg>