<?xml version="1.0" encoding="UTF-8"?>
<svg width="32px" height="32px" viewBox="0 0 32 32" version="1.1" xmlns="http://www.w3.org/2000/svg" xmlns:xlink="http://www.w3.org/1999/xlink">
    <!-- Generator: Sketch 59.1 (86144) - https://sketch.com -->
    <title>32</title>
    <desc>Created with Sketch.</desc>
    <g id="32" stroke="none" stroke-width="1" fill="none" fill-rule="evenodd">
        <path d="M1.5,5 L1.5,30 C1.5,30.2761424 1.72385763,30.5 2,30.5 L30,30.5 C30.2761424,30.5 30.5,30.2761424 30.5,30 L30.5,5 C30.5,4.72385763 30.2761424,4.5 30,4.5 L2,4.5 C1.72385763,4.5 1.5,4.72385763 1.5,5 Z M0,5 C0,3.8954305 0.8954305,3 2,3 L30,3 C31.1045695,3 32,3.8954305 32,5 L32,30 C32,31.1045695 31.1045695,32 30,32 L2,32 C0.8954305,32 0,31.1045695 0,30 L0,5 Z" id="Stroke-8324" fill="#000000" fill-rule="nonzero"></path>
        <path d="M16.3292246,24.2940518 C17.2231817,23.5975021 18.1171092,22.8264685 18.946698,22.0072123 C20.8499086,20.127706 22.1040113,18.2949603 22.4218191,16.7363354 C22.474023,16.4803121 22.5,16.234929 22.5,16 C22.5,12.222737 18.1359487,11.6408635 17.4552138,14.3638034 C17.0764816,15.8787322 14.9235184,15.8787322 14.5447862,14.3638034 C13.8640513,11.6408635 9.5,12.222737 9.5,16 C9.5,16.2348939 9.52598245,16.4802435 9.57819805,16.736236 C9.89609997,18.2947837 11.1506343,20.127527 13.0544994,22.0070303 C13.8843842,22.8262959 14.7786314,23.5973387 15.6729089,24.2938974 C15.7854676,24.3815701 15.89503,24.4657064 16.0012252,24.5461655 C16.1073201,24.4657533 16.2167765,24.3816686 16.3292246,24.2940518 Z M16,14 C18,9 24,11 24,16 C24,21 16.0013817,26.3989962 16.0013817,26.3989962 C16.0013817,26.3989962 8,21 8,16 C8,11 14,9 16,14 Z" id="Stroke-8329" fill="#000000" fill-rule="nonzero"></path>
        <rect id="Rectangle-Copy-3" fill="#000000" x="10.25" y="0" width="1.5" height="8" rx="0.75"></rect>
        <rect id="Rectangle-Copy-5" fill="#000000" x="20.25" y="0" width="1.5" height="8" rx="0.75"></rect>
        <rect id="Rectangle-Copy-7" fill="#000000" x="15.25" y="0" width="1.5" height="8" rx="0.75"></rect>
        <rect id="Rectangle-Copy-6" fill="#000000" x="25.25" y="0" width="1.5" height="8" rx="0.75"></rect>
        <rect id="Rectangle-Copy-4" fill="#000000" x="5.25" y="0" width="1.5" height="8" rx="0.75"></rect>
    </g>
</svg>