<?xml version="1.0" encoding="UTF-8"?>
<svg width="16px" height="16px" viewBox="0 0 16 16" version="1.1" xmlns="http://www.w3.org/2000/svg" xmlns:xlink="http://www.w3.org/1999/xlink">
    <!-- Generator: Sketch 59.1 (86144) - https://sketch.com -->
    <title>16</title>
    <desc>Created with Sketch.</desc>
    <g id="16" stroke="none" stroke-width="1" fill="none" fill-rule="evenodd">
        <g id="Group-3" transform="translate(1.000000, 1.000000)" fill="#424651">
            <path d="M7,2.48689958e-14 C7.38659932,2.48689958e-14 7.7,0.313400675 7.7,0.7 L7.699,6.035 L13.3,6.03501587 C13.6865993,6.03501587 14,6.34841654 14,6.73501587 C14,7.12161519 13.6865993,7.43501587 13.3,7.43501587 L7.699,7.435 L7.7,13.2991455 C7.7,13.6857448 7.38659932,13.9991455 7,13.9991455 C6.61340068,13.9991455 6.3,13.6857448 6.3,13.2991455 L6.299,7.435 L0.7,7.43501587 C0.313400675,7.43501587 4.73447626e-17,7.12161519 0,6.73501587 C-4.73447626e-17,6.34841654 0.313400675,6.03501587 0.7,6.03501587 L6.299,6.035 L6.3,0.7 C6.3,0.313400675 6.61340068,2.48689958e-14 7,2.48689958e-14 Z" id="Combined-Shape"></path>
        </g>
    </g>
</svg>