<?xml version="1.0" encoding="UTF-8"?>
<svg width="16px" height="16px" viewBox="0 0 16 16" version="1.1" xmlns="http://www.w3.org/2000/svg" xmlns:xlink="http://www.w3.org/1999/xlink">
    <!-- Generator: Sketch 59.1 (86144) - https://sketch.com -->
    <title>16</title>
    <desc>Created with Sketch.</desc>
    <g id="16" stroke="none" stroke-width="1" fill="none" fill-rule="evenodd">
        <path d="M0.75,8 C1.16421356,8 1.5,8.33578644 1.5,8.75 L1.5,15.25 C1.5,15.6642136 1.16421356,16 0.75,16 C0.335786438,16 5.07265313e-17,15.6642136 0,15.25 L0,8.75 C-5.07265313e-17,8.33578644 0.335786438,8 0.75,8 Z" id="Rectangle" fill="#000000"></path>
        <path d="M15.25,8 C15.6642136,8 16,8.33578644 16,8.75 L16,15.25 C16,15.6642136 15.6642136,16 15.25,16 C14.8357864,16 14.5,15.6642136 14.5,15.25 L14.5,8.75 C14.5,8.33578644 14.8357864,8 15.25,8 Z" id="Rectangle-Copy" fill="#000000"></path>
        <path d="M8,7.25 C8.41421356,7.25 8.75,7.58578644 8.75,8 L8.75,22.5 C8.75,22.9142136 8.41421356,23.25 8,23.25 C7.58578644,23.25 7.25,22.9142136 7.25,22.5 L7.25,8 C7.25,7.58578644 7.58578644,7.25 8,7.25 Z" id="Rectangle-Copy-2" fill="#000000" transform="translate(8.000000, 15.250000) rotate(-90.000000) translate(-8.000000, -15.250000) "></path>
        <rect id="Rectangle-Copy-3" fill="#000000" x="7.25" y="0" width="1.5" height="12" rx="0.75"></rect>
        <path d="M6.41161165,7.16529131 C6.82582521,7.16529131 7.16161165,7.50107775 7.16161165,7.91529131 L7.16161165,11.7363591 C7.16161165,12.1505727 6.82582521,12.4863591 6.41161165,12.4863591 C5.99739809,12.4863591 5.66161165,12.1505727 5.66161165,11.7363591 L5.66161165,7.91529131 C5.66161165,7.50107775 5.99739809,7.16529131 6.41161165,7.16529131 Z" id="Rectangle-Copy-3" fill="#000000" transform="translate(6.411612, 9.825825) rotate(-45.000000) translate(-6.411612, -9.825825) "></path>
        <path d="M9.41161165,7.16529131 C9.82582521,7.16529131 10.1616117,7.50107775 10.1616117,7.91529131 L10.1616117,11.7363591 C10.1616117,12.1505727 9.82582521,12.4863591 9.41161165,12.4863591 C8.99739809,12.4863591 8.66161165,12.1505727 8.66161165,11.7363591 L8.66161165,7.91529131 C8.66161165,7.50107775 8.99739809,7.16529131 9.41161165,7.16529131 Z" id="Rectangle-Copy-3" fill="#000000" transform="translate(9.411612, 9.825825) scale(-1, 1) rotate(-45.000000) translate(-9.411612, -9.825825) "></path>
    </g>
</svg>