<?xml version="1.0" encoding="UTF-8"?>
<svg width="24px" height="24px" viewBox="0 0 24 24" version="1.1" xmlns="http://www.w3.org/2000/svg" xmlns:xlink="http://www.w3.org/1999/xlink">
    <!-- Generator: Sketch 59.1 (86144) - https://sketch.com -->
    <title>24</title>
    <desc>Created with Sketch.</desc>
    <g id="24" stroke="none" stroke-width="1" fill="none" fill-rule="evenodd">
        <path d="M12,11.25 C12.4142136,11.25 12.75,11.5857864 12.75,12 L12.75,34.5 C12.75,34.9142136 12.4142136,35.25 12,35.25 C11.5857864,35.25 11.25,34.9142136 11.25,34.5 L11.25,12 C11.25,11.5857864 11.5857864,11.25 12,11.25 Z" id="Rectangle-Copy-2" fill="#000000" transform="translate(12.000000, 23.250000) rotate(-90.000000) translate(-12.000000, -23.250000) "></path>
        <path d="M0.75,12 C1.16421356,12 1.5,12.3357864 1.5,12.75 L1.5,23.25 C1.5,23.6642136 1.16421356,24 0.75,24 C0.335786438,24 5.07265313e-17,23.6642136 0,23.25 L0,12.75 C-5.07265313e-17,12.3357864 0.335786438,12 0.75,12 Z" id="Rectangle" fill="#000000"></path>
        <path d="M23.25,12 C23.6642136,12 24,12.3357864 24,12.75 L24,23.25 C24,23.6642136 23.6642136,24 23.25,24 C22.8357864,24 22.5,23.6642136 22.5,23.25 L22.5,12.75 C22.5,12.3357864 22.8357864,12 23.25,12 Z" id="Rectangle-Copy" fill="#000000"></path>
        <rect id="Rectangle-Copy-3" fill="#000000" x="11.25" y="0" width="1.5" height="18" rx="0.75"></rect>
        <path d="M9.28553391,10.3587572 C9.69974747,10.3587572 10.0355339,10.6945436 10.0355339,11.1087572 L10.0355339,18.3587572 C10.0355339,18.7729708 9.69974747,19.1087572 9.28553391,19.1087572 C8.87132034,19.1087572 8.53553391,18.7729708 8.53553391,18.3587572 L8.53553391,11.1087572 C8.53553391,10.6945436 8.87132034,10.3587572 9.28553391,10.3587572 Z" id="Rectangle-Copy-3" fill="#000000" transform="translate(9.285534, 14.733757) rotate(-45.000000) translate(-9.285534, -14.733757) "></path>
        <path d="M14.6239223,10.3587572 C15.0381358,10.3587572 15.3739223,10.6945436 15.3739223,11.1087572 L15.3739223,18.3587572 C15.3739223,18.7729708 15.0381358,19.1087572 14.6239223,19.1087572 C14.2097087,19.1087572 13.8739223,18.7729708 13.8739223,18.3587572 L13.8739223,11.1087572 C13.8739223,10.6945436 14.2097087,10.3587572 14.6239223,10.3587572 Z" id="Rectangle-Copy-3" fill="#000000" transform="translate(14.623922, 14.733757) scale(-1, 1) rotate(-45.000000) translate(-14.623922, -14.733757) "></path>
    </g>
</svg>