<?xml version="1.0" encoding="UTF-8"?>
<svg width="32px" height="32px" viewBox="0 0 32 32" version="1.1" xmlns="http://www.w3.org/2000/svg" xmlns:xlink="http://www.w3.org/1999/xlink">
    <!-- Generator: Sketch 59.1 (86144) - https://sketch.com -->
    <title>32</title>
    <desc>Created with Sketch.</desc>
    <g id="32" stroke="none" stroke-width="1" fill="none" fill-rule="evenodd">
        <rect id="Rectangle" fill="#000000" x="0" y="16" width="1.5" height="16" rx="0.75"></rect>
        <path d="M16.125,15.375 C16.5392136,15.375 16.875,15.7107864 16.875,16.125 L16.875,46.375 C16.875,46.7892136 16.5392136,47.125 16.125,47.125 C15.7107864,47.125 15.375,46.7892136 15.375,46.375 L15.375,16.125 C15.375,15.7107864 15.7107864,15.375 16.125,15.375 Z" id="Rectangle-Copy-2" fill="#000000" transform="translate(16.125000, 31.250000) rotate(-90.000000) translate(-16.125000, -31.250000) "></path>
        <rect id="Rectangle-Copy" fill="#000000" x="30.5" y="16" width="1.5" height="16" rx="0.75"></rect>
        <rect id="Rectangle-Copy-3" fill="#000000" x="15.25" y="0" width="1.5" height="24" rx="0.75"></rect>
        <path d="M12.327665,13.8538691 C12.7418786,13.8538691 13.077665,14.1896555 13.077665,14.6038691 L13.077665,24.551461 C13.077665,24.9656746 12.7418786,25.301461 12.327665,25.301461 C11.9134515,25.301461 11.577665,24.9656746 11.577665,24.551461 L11.577665,14.6038691 C11.577665,14.1896555 11.9134515,13.8538691 12.327665,13.8538691 Z" id="Rectangle-Copy-3" fill="#000000" transform="translate(12.327665, 19.577665) rotate(-45.000000) translate(-12.327665, -19.577665) "></path>
        <path d="M19.598898,13.8405861 C20.0131116,13.8405861 20.348898,14.1763725 20.348898,14.5905861 L20.348898,24.6288798 C20.348898,25.0430933 20.0131116,25.3788798 19.598898,25.3788798 C19.1846845,25.3788798 18.848898,25.0430933 18.848898,24.6288798 L18.848898,14.5905861 C18.848898,14.1763725 19.1846845,13.8405861 19.598898,13.8405861 Z" id="Rectangle-Copy-4" fill="#000000" transform="translate(19.598898, 19.609733) scale(-1, 1) rotate(-45.000000) translate(-19.598898, -19.609733) "></path>
    </g>
</svg>