<?xml version="1.0" encoding="UTF-8"?>
<svg width="16px" height="16px" viewBox="0 0 16 16" version="1.1" xmlns="http://www.w3.org/2000/svg" xmlns:xlink="http://www.w3.org/1999/xlink">
    <!-- Generator: Sketch 59.1 (86144) - https://sketch.com -->
    <title>16</title>
    <desc>Created with Sketch.</desc>
    <g id="16" stroke="none" stroke-width="1" fill="none" fill-rule="evenodd">
        <path d="M4,13.75 L4,12.25 C4.38110726,12.25 6.29477963,9.73338977 7.32917961,7.6645898 C8.85407094,4.61480714 11.4269273,2.25 15,2.25 L15,3.75 C12.1331865,3.75 9.96887726,5.73929645 8.67082039,8.3354102 C7.32522037,11.0266102 5.25430941,13.75 4,13.75 Z" id="Path-4-Copy-2" fill="#000000" fill-rule="nonzero"></path>
        <path d="M2.75,14.5 C3.44035594,14.5 4,13.9403559 4,13.25 C4,12.5596441 3.44035594,12 2.75,12 C2.05964406,12 1.5,12.5596441 1.5,13.25 C1.5,13.9403559 2.05964406,14.5 2.75,14.5 Z M2.75,16 C1.23121694,16 0,14.7687831 0,13.25 C0,11.7312169 1.23121694,10.5 2.75,10.5 C4.26878306,10.5 5.5,11.7312169 5.5,13.25 C5.5,14.7687831 4.26878306,16 2.75,16 Z" id="Oval-Copy-2" fill="#000000" fill-rule="nonzero"></path>
        <path d="M2.72738943,-0.793633663 C3.13099177,-0.793633663 3.45817611,-0.466449324 3.45817611,-0.0628469875 C3.45817611,-0.0613838234 3.45817171,-0.0599206626 3.45816292,-0.0584575249 L3.42494855,5.4711902 C3.42250543,5.87792912 3.0920895,6.20636634 2.68534324,6.20636634 C2.28174091,6.20636634 1.95455657,5.879182 1.95455657,5.47557966 C1.95455657,5.4741165 1.95456096,5.47265334 1.95456975,5.4711902 L1.98778412,-0.0584575249 C1.99022724,-0.465196446 2.32064317,-0.793633663 2.72738943,-0.793633663 Z" id="Rectangle-Copy-4" fill="#000000" transform="translate(2.706366, 2.706366) rotate(-45.000000) translate(-2.706366, -2.706366) "></path>
        <path d="M2.72738943,-0.793633663 C3.13099177,-0.793633663 3.45817611,-0.466449324 3.45817611,-0.0628469875 C3.45817611,-0.0613838234 3.45817171,-0.0599206626 3.45816292,-0.0584575249 L3.42494855,5.4711902 C3.42250543,5.87792912 3.0920895,6.20636634 2.68534324,6.20636634 C2.28174091,6.20636634 1.95455657,5.879182 1.95455657,5.47557966 C1.95455657,5.4741165 1.95456096,5.47265334 1.95456975,5.4711902 L1.98778412,-0.0584575249 C1.99022724,-0.465196446 2.32064317,-0.793633663 2.72738943,-0.793633663 Z" id="Rectangle-Copy-4" fill="#000000" transform="translate(2.706366, 2.706366) scale(-1, 1) rotate(-45.000000) translate(-2.706366, -2.706366) "></path>
        <path d="M13.3273896,9.80636654 C13.730992,9.80636654 14.0581763,10.1335509 14.0581763,10.5371532 C14.0581763,10.5386164 14.0581719,10.5400795 14.0581631,10.5415427 L14.0249488,16.0711904 C14.0225056,16.4779293 13.6920897,16.8063665 13.2853434,16.8063665 C12.8817411,16.8063665 12.5545568,16.4791822 12.5545568,16.0755799 C12.5545568,16.0741167 12.5545612,16.0726535 12.55457,16.0711904 L12.5877843,10.5415427 C12.5902274,10.1348038 12.9206434,9.80636654 13.3273896,9.80636654 Z" id="Rectangle-Copy-4" fill="#000000" transform="translate(13.306367, 13.306367) rotate(-45.000000) translate(-13.306367, -13.306367) "></path>
        <path d="M13.3273896,9.80636654 C13.730992,9.80636654 14.0581763,10.1335509 14.0581763,10.5371532 C14.0581763,10.5386164 14.0581719,10.5400795 14.0581631,10.5415427 L14.0249488,16.0711904 C14.0225056,16.4779293 13.6920897,16.8063665 13.2853434,16.8063665 C12.8817411,16.8063665 12.5545568,16.4791822 12.5545568,16.0755799 C12.5545568,16.0741167 12.5545612,16.0726535 12.55457,16.0711904 L12.5877843,10.5415427 C12.5902274,10.1348038 12.9206434,9.80636654 13.3273896,9.80636654 Z" id="Rectangle-Copy-4" fill="#000000" transform="translate(13.306367, 13.306367) scale(-1, 1) rotate(-45.000000) translate(-13.306367, -13.306367) "></path>
        <path d="M13.2368127,-1.11335963 C13.6384661,-1.11335963 13.9640705,-0.78775525 13.9640705,-0.386101893 C13.9640705,-0.384319953 13.9640639,-0.38253802 13.9640508,-0.380756128 L13.9329218,3.85403668 C13.9299412,4.2595106 13.6003982,4.58664018 13.1949133,4.58664018 C12.7932599,4.58664018 12.4676556,4.2610358 12.4676556,3.85938244 C12.4676556,3.8576005 12.4676621,3.85581857 12.4676752,3.85403668 L12.4988042,-0.380756128 C12.5017848,-0.786230045 12.8313278,-1.11335963 13.2368127,-1.11335963 Z" id="Rectangle-Copy-3" fill="#000000" transform="translate(13.215863, 1.736640) rotate(-67.000000) translate(-13.215863, -1.736640) "></path>
        <path d="M14.1786975,1.79259345 C14.5803771,1.79259345 14.9060028,2.1182191 14.9060028,2.5198987 C14.9060028,2.52174618 14.9059958,2.52359365 14.9059817,2.52544107 L14.8752377,6.55974583 C14.8721465,6.96538662 14.5424366,7.29259345 14.1367841,7.29259345 C13.7351045,7.29259345 13.4094788,6.96696779 13.4094788,6.56528819 C13.4094788,6.56344071 13.4094858,6.56159325 13.4094999,6.55974583 L13.4402439,2.52544107 C13.4433351,2.11980027 13.773045,1.79259345 14.1786975,1.79259345 Z" id="Rectangle-Copy-3" fill="#000000" transform="translate(14.157741, 4.542593) rotate(31.000000) translate(-14.157741, -4.542593) "></path>
    </g>
</svg>