<?xml version="1.0" encoding="UTF-8"?>
<svg width="24px" height="24px" viewBox="0 0 24 24" version="1.1" xmlns="http://www.w3.org/2000/svg" xmlns:xlink="http://www.w3.org/1999/xlink">
    <!-- Generator: Sketch 59.1 (86144) - https://sketch.com -->
    <title>24</title>
    <desc>Created with Sketch.</desc>
    <g id="24" stroke="none" stroke-width="1" fill="none" fill-rule="evenodd">
        <path d="M20.9202851,-1.56634531 C21.322271,-1.56634531 21.6481449,-1.24047134 21.6481449,-0.838485439 C21.6481449,-0.836902813 21.6481398,-0.835320191 21.6481294,-0.833737599 L21.6157878,4.12423394 C21.6131435,4.52961273 21.2837731,4.85684165 20.8783856,4.85684165 C20.4763997,4.85684165 20.1505258,4.53096769 20.1505258,4.12898178 C20.1505258,4.12739916 20.1505309,4.12581654 20.1505413,4.12423394 L20.1828829,-0.833737599 C20.1855272,-1.23911639 20.5148976,-1.56634531 20.9202851,-1.56634531 Z" id="Rectangle-Copy-3" fill="#000000" transform="translate(20.899335, 1.645248) rotate(-67.000000) translate(-20.899335, -1.645248) "></path>
        <path d="M21.9089472,1.95778046 C22.310882,1.95778046 22.6367145,2.28361296 22.6367145,2.68554773 C22.6367145,2.68724233 22.6367085,2.68893692 22.6366967,2.69063148 L22.605022,7.22492944 C22.6021889,7.63049734 22.2726115,7.95778046 21.8670337,7.95778046 C21.465099,7.95778046 21.1392665,7.63194795 21.1392665,7.23001319 C21.1392665,7.22831859 21.1392724,7.226624 21.1392842,7.22492944 L21.1709589,2.69063148 C21.173792,2.28506357 21.5033694,1.95778046 21.9089472,1.95778046 Z" id="Rectangle-Copy-3" fill="#000000" transform="translate(21.887990, 4.957780) rotate(31.000000) translate(-21.887990, -4.957780) "></path>
        <path d="M7.2810889,19.6953338 C6.89706667,19.8505749 6.45990736,19.6651111 6.30466625,19.2810889 C6.14942513,18.8970667 6.33488887,18.4599074 6.7189111,18.3046662 C7.91930342,17.8194073 9.07089171,16.1811656 11.3291796,11.6645898 C14.5919283,5.13909235 17.540452,2.25 23,2.25 C23.4142136,2.25 23.75,2.58578644 23.75,3 C23.75,3.41421356 23.4142136,3.75 23,3.75 C18.2744097,3.75 15.7044423,6.26816632 12.6708204,12.3354102 C10.2334647,17.2101216 8.96501835,19.0146047 7.2810889,19.6953338 Z" id="Path-4" fill="#000000" fill-rule="nonzero"></path>
        <path d="M3.75,22.5 C4.99264069,22.5 6,21.4926407 6,20.25 C6,19.0073593 4.99264069,18 3.75,18 C2.50735931,18 1.5,19.0073593 1.5,20.25 C1.5,21.4926407 2.50735931,22.5 3.75,22.5 Z M3.75,24 C1.67893219,24 0,22.3210678 0,20.25 C0,18.1789322 1.67893219,16.5 3.75,16.5 C5.82106781,16.5 7.5,18.1789322 7.5,20.25 C7.5,22.3210678 5.82106781,24 3.75,24 Z" id="Oval" fill="#000000" fill-rule="nonzero"></path>
        <path d="M3.78669534,-1.23423978 C4.18934076,-1.23423978 4.51574937,-0.907831177 4.51574937,-0.505185756 C4.51574937,-0.504168239 4.51574724,-0.503150723 4.51574298,-0.502133215 L4.48000343,8.03365365 C4.47830841,8.43847984 4.14965484,8.76576022 3.7448251,8.76576022 C3.34217967,8.76576022 3.01577107,8.43935161 3.01577107,8.03670619 C3.01577107,8.03568867 3.0157732,8.03467116 3.01577746,8.03365365 L3.05151701,-0.502133215 C3.05321202,-0.906959409 3.3818656,-1.23423978 3.78669534,-1.23423978 Z" id="Rectangle-Copy-4" fill="#000000" transform="translate(3.765760, 3.765760) rotate(-45.000000) translate(-3.765760, -3.765760) "></path>
        <path d="M3.78669534,-1.23423978 C4.18934076,-1.23423978 4.51574937,-0.907831177 4.51574937,-0.505185756 C4.51574937,-0.504168239 4.51574724,-0.503150723 4.51574298,-0.502133215 L4.48000343,8.03365365 C4.47830841,8.43847984 4.14965484,8.76576022 3.7448251,8.76576022 C3.34217967,8.76576022 3.01577107,8.43935161 3.01577107,8.03670619 C3.01577107,8.03568867 3.0157732,8.03467116 3.01577746,8.03365365 L3.05151701,-0.502133215 C3.05321202,-0.906959409 3.3818656,-1.23423978 3.78669534,-1.23423978 Z" id="Rectangle-Copy-4" fill="#000000" transform="translate(3.765760, 3.765760) scale(-1, 1) rotate(-45.000000) translate(-3.765760, -3.765760) "></path>
        <path d="M20.3866946,15.3657595 C20.78934,15.3657595 21.1157486,15.6921681 21.1157486,16.0948135 C21.1157486,16.095831 21.1157465,16.0968485 21.1157422,16.097866 L21.0800027,24.6336529 C21.0783077,25.0384791 20.7496541,25.3657595 20.3448243,25.3657595 C19.9421789,25.3657595 19.6157703,25.0393509 19.6157703,24.6367054 C19.6157703,24.6356879 19.6157724,24.6346704 19.6157767,24.6336529 L19.6515163,16.097866 C19.6532113,15.6930398 19.9818648,15.3657595 20.3866946,15.3657595 Z" id="Rectangle-Copy-4" fill="#000000" transform="translate(20.365759, 20.365759) rotate(-45.000000) translate(-20.365759, -20.365759) "></path>
        <path d="M20.3866946,15.3657595 C20.78934,15.3657595 21.1157486,15.6921681 21.1157486,16.0948135 C21.1157486,16.095831 21.1157465,16.0968485 21.1157422,16.097866 L21.0800027,24.6336529 C21.0783077,25.0384791 20.7496541,25.3657595 20.3448243,25.3657595 C19.9421789,25.3657595 19.6157703,25.0393509 19.6157703,24.6367054 C19.6157703,24.6356879 19.6157724,24.6346704 19.6157767,24.6336529 L19.6515163,16.097866 C19.6532113,15.6930398 19.9818648,15.3657595 20.3866946,15.3657595 Z" id="Rectangle-Copy-4" fill="#000000" transform="translate(20.365759, 20.365759) scale(-1, 1) rotate(-45.000000) translate(-20.365759, -20.365759) "></path>
    </g>
</svg>